<svg width="142" height="43" viewBox="0 0 142 43" fill="none" xmlns="http://www.w3.org/2000/svg">
<g filter="url(#filter0_d_155_626)">
<path d="M50.9269 5.59385H51.6569V10.1938H50.9269V9.36385C50.5769 9.91385 49.9969 10.2738 49.2169 10.2738C47.9069 10.2738 46.9769 9.26385 46.9769 7.89385C46.9769 6.51385 47.9069 5.52385 49.2169 5.52385C49.9969 5.52385 50.5769 5.87385 50.9269 6.42385V5.59385ZM49.3069 9.58385C50.2969 9.58385 50.9269 8.87385 50.9269 7.89385C50.9269 6.91385 50.2969 6.21385 49.3069 6.21385C48.3269 6.21385 47.6769 6.91385 47.6769 7.89385C47.6769 8.87385 48.3269 9.58385 49.3069 9.58385ZM55.1079 5.52385C56.0279 5.52385 56.9379 6.06385 56.9379 7.36385V10.1938H56.2179V7.46385C56.2179 6.58385 55.5979 6.15385 54.9179 6.15385C54.2279 6.15385 53.6279 6.58385 53.6279 7.46385V10.1938H52.9079V5.59385H53.6279V6.21385C53.9779 5.73385 54.5379 5.52385 55.1079 5.52385ZM62.0109 3.69385H62.7409V10.1938H62.0109V9.36385C61.6609 9.91385 61.0809 10.2738 60.3009 10.2738C58.9909 10.2738 58.0609 9.26385 58.0609 7.89385C58.0609 6.51385 58.9909 5.52385 60.3009 5.52385C61.0809 5.52385 61.6609 5.87385 62.0109 6.42385V3.69385ZM60.3909 9.58385C61.3809 9.58385 62.0109 8.87385 62.0109 7.89385C62.0109 6.91385 61.3809 6.21385 60.3909 6.21385C59.4109 6.21385 58.7609 6.91385 58.7609 7.89385C58.7609 8.87385 59.4109 9.58385 60.3909 9.58385ZM64.7119 6.44385C65.0619 5.81385 65.6819 5.53385 66.3319 5.52385V6.21385C65.6219 6.22385 64.7119 6.59385 64.7119 7.71385V10.1938H63.9919V5.59385H64.7119V6.44385ZM69.1411 10.2838C67.7611 10.2838 66.8011 9.26385 66.8011 7.89385C66.8011 6.51385 67.7611 5.51385 69.1411 5.51385C70.5211 5.51385 71.4811 6.51385 71.4811 7.89385C71.4811 9.26385 70.5211 10.2838 69.1411 10.2838ZM69.1411 9.58385C70.1111 9.58385 70.7511 8.86385 70.7511 7.89385C70.7511 6.92385 70.1111 6.21385 69.1411 6.21385C68.1711 6.21385 67.5211 6.92385 67.5211 7.89385C67.5211 8.86385 68.1711 9.58385 69.1411 9.58385ZM73.0354 4.61385C72.8154 4.61385 72.5954 4.43385 72.5954 4.16385C72.5954 3.89385 72.8154 3.73385 73.0354 3.73385C73.2554 3.73385 73.4754 3.89385 73.4754 4.16385C73.4754 4.43385 73.2554 4.61385 73.0354 4.61385ZM73.3954 10.1938H72.6754V5.59385H73.4054L73.3954 10.1938ZM78.5441 3.69385H79.2741V10.1938H78.5441V9.36385C78.1941 9.91385 77.6141 10.2738 76.8341 10.2738C75.5241 10.2738 74.5941 9.26385 74.5941 7.89385C74.5941 6.51385 75.5241 5.52385 76.8341 5.52385C77.6141 5.52385 78.1941 5.87385 78.5441 6.42385V3.69385ZM76.9241 9.58385C77.9141 9.58385 78.5441 8.87385 78.5441 7.89385C78.5441 6.91385 77.9141 6.21385 76.9241 6.21385C75.9441 6.21385 75.2941 6.91385 75.2941 7.89385C75.2941 8.87385 75.9441 9.58385 76.9241 9.58385ZM86.3371 5.59385H87.0671V10.1938H86.3371V9.36385C85.9871 9.91385 85.4071 10.2738 84.6271 10.2738C83.3171 10.2738 82.3871 9.26385 82.3871 7.89385C82.3871 6.51385 83.3171 5.52385 84.6271 5.52385C85.4071 5.52385 85.9871 5.87385 86.3371 6.42385V5.59385ZM84.7171 9.58385C85.7071 9.58385 86.3371 8.87385 86.3371 7.89385C86.3371 6.91385 85.7071 6.21385 84.7171 6.21385C83.7371 6.21385 83.0871 6.91385 83.0871 7.89385C83.0871 8.87385 83.7371 9.58385 84.7171 9.58385ZM90.7481 5.52385C92.0581 5.52385 92.9981 6.53385 92.9981 7.90385C92.9981 9.28385 92.0581 10.2738 90.7481 10.2738C89.9681 10.2738 89.3881 9.92385 89.0381 9.36385V12.0338H88.3181V5.59385H89.0381V6.43385C89.3881 5.87385 89.9681 5.52385 90.7481 5.52385ZM90.6581 9.58385C91.6381 9.58385 92.2881 8.88385 92.2881 7.90385C92.2881 6.92385 91.6381 6.21385 90.6581 6.21385C89.6781 6.21385 89.0381 6.92385 89.0381 7.90385C89.0381 8.88385 89.6781 9.58385 90.6581 9.58385ZM96.5391 5.52385C97.8491 5.52385 98.7891 6.53385 98.7891 7.90385C98.7891 9.28385 97.8491 10.2738 96.5391 10.2738C95.7591 10.2738 95.1791 9.92385 94.8291 9.36385V12.0338H94.1091V5.59385H94.8291V6.43385C95.1791 5.87385 95.7591 5.52385 96.5391 5.52385ZM96.4491 9.58385C97.4291 9.58385 98.0791 8.88385 98.0791 7.90385C98.0791 6.92385 97.4291 6.21385 96.4491 6.21385C95.4691 6.21385 94.8291 6.92385 94.8291 7.90385C94.8291 8.88385 95.4691 9.58385 96.4491 9.58385ZM104.102 10.2838C102.722 10.2838 101.762 9.26385 101.762 7.89385C101.762 6.51385 102.722 5.51385 104.102 5.51385C105.482 5.51385 106.442 6.51385 106.442 7.89385C106.442 9.26385 105.482 10.2838 104.102 10.2838ZM104.102 9.58385C105.072 9.58385 105.712 8.86385 105.712 7.89385C105.712 6.92385 105.072 6.21385 104.102 6.21385C103.132 6.21385 102.482 6.92385 102.482 7.89385C102.482 8.86385 103.132 9.58385 104.102 9.58385ZM109.756 5.52385C110.676 5.52385 111.586 6.06385 111.586 7.36385V10.1938H110.866V7.46385C110.866 6.58385 110.246 6.15385 109.566 6.15385C108.876 6.15385 108.276 6.58385 108.276 7.46385V10.1938H107.556V5.59385H108.276V6.21385C108.626 5.73385 109.186 5.52385 109.756 5.52385Z" fill="white"/>
<path d="M56.1248 25.3746C56.0168 28.7046 53.8928 31.0986 50.5088 31.0986C47.0348 31.0986 44.6588 28.5786 44.6588 25.1046C44.6588 21.6306 47.0348 19.1106 50.5088 19.1106C52.5788 19.1106 54.2348 20.0106 55.2428 21.4506L54.1268 22.2426C53.2988 21.0906 52.0028 20.4786 50.5088 20.4786C47.8268 20.4786 46.0088 22.4226 46.0088 25.1046C46.0088 27.7866 47.8268 29.7306 50.5088 29.7306C52.7228 29.7306 54.3608 28.3086 54.5948 26.0586H50.4548V24.7986H56.1248V25.3746ZM62.1757 31.1166C59.6917 31.1166 57.9637 29.2806 57.9637 26.8146C57.9637 24.3306 59.6917 22.5306 62.1757 22.5306C64.6597 22.5306 66.3877 24.3306 66.3877 26.8146C66.3877 29.2806 64.6597 31.1166 62.1757 31.1166ZM62.1757 29.8566C63.9217 29.8566 65.0737 28.5606 65.0737 26.8146C65.0737 25.0686 63.9217 23.7906 62.1757 23.7906C60.4297 23.7906 59.2597 25.0686 59.2597 26.8146C59.2597 28.5606 60.4297 29.8566 62.1757 29.8566ZM72.3535 31.1166C69.8695 31.1166 68.1415 29.2806 68.1415 26.8146C68.1415 24.3306 69.8695 22.5306 72.3535 22.5306C74.8375 22.5306 76.5655 24.3306 76.5655 26.8146C76.5655 29.2806 74.8375 31.1166 72.3535 31.1166ZM72.3535 29.8566C74.0995 29.8566 75.2515 28.5606 75.2515 26.8146C75.2515 25.0686 74.0995 23.7906 72.3535 23.7906C70.6075 23.7906 69.4375 25.0686 69.4375 26.8146C69.4375 28.5606 70.6075 29.8566 72.3535 29.8566ZM85.4292 22.6746H86.7432V30.3426C86.7432 32.7186 85.0512 34.3746 82.3872 34.3746C80.9472 34.3746 79.7232 33.8166 78.9672 32.9166L79.8492 32.1786C80.5152 32.9166 81.4332 33.2406 82.3872 33.2406C83.9172 33.2406 85.4292 32.3226 85.4292 30.3426V29.4606C84.7992 30.4506 83.7552 31.0986 82.3512 31.0986C79.9932 31.0986 78.3192 29.2806 78.3192 26.8146C78.3192 24.3486 79.9932 22.5486 82.3512 22.5486C83.7552 22.5486 84.7992 23.1786 85.4292 24.1686V22.6746ZM82.5132 29.8566C84.2772 29.8566 85.4292 28.5786 85.4292 26.8146C85.4292 25.0506 84.2772 23.7906 82.5132 23.7906C80.7492 23.7906 79.5792 25.0506 79.5792 26.8146C79.5792 28.5786 80.7492 29.8566 82.5132 29.8566ZM90.291 30.9546H88.995V19.2546H90.291V30.9546ZM96.3974 22.5306C98.7734 22.5306 100.357 24.3486 100.357 26.8146V27.2286H93.5714C93.7334 28.8846 94.8674 29.9826 96.5054 29.9826C97.7294 29.9826 98.5754 29.4246 99.0434 28.7226L99.9614 29.3886C99.2414 30.4506 98.0174 31.1166 96.5054 31.1166C93.9854 31.1166 92.3114 29.2806 92.3114 26.8146C92.3114 24.3486 93.9134 22.5306 96.3974 22.5306ZM96.3974 23.6106C94.7774 23.6106 93.7514 24.7086 93.5714 26.3286H99.1514C98.9714 24.7626 97.9454 23.6106 96.3974 23.6106ZM111.249 19.2546C113.013 19.2546 114.597 20.6586 114.597 22.8186C114.597 24.9786 113.013 26.3826 111.249 26.3826H107.325V30.9546H105.975V19.2546H111.249ZM111.051 25.0686C112.311 25.0686 113.229 24.0786 113.229 22.8186C113.229 21.5766 112.329 20.5866 111.051 20.5866H107.325V25.0686H111.051ZM117.783 30.9546H116.487V19.2546H117.783V30.9546ZM126.914 22.6746H128.228V30.9546H126.914V29.4606C126.284 30.4506 125.24 31.0986 123.836 31.0986C121.478 31.0986 119.804 29.2806 119.804 26.8146C119.804 24.3306 121.478 22.5486 123.836 22.5486C125.24 22.5486 126.284 23.1786 126.914 24.1686V22.6746ZM123.998 29.8566C125.78 29.8566 126.914 28.5786 126.914 26.8146C126.914 25.0506 125.78 23.7906 123.998 23.7906C122.234 23.7906 121.064 25.0506 121.064 26.8146C121.064 28.5786 122.234 29.8566 123.998 29.8566ZM136.185 22.6746H137.535L132.927 34.2666H131.649L132.945 30.9366L129.705 22.6746H131.055L133.611 29.1546L136.185 22.6746Z" fill="white"/>
<path d="M4.67065 33.3127V0.336426L34.3224 16.3528L4.67065 33.3127Z" fill="#5CA9B3"/>
<path d="M4.67065 0.336426L25.6515 21.3172L34.3224 16.3528L4.67065 0.336426Z" fill="#C8DB9B"/>
<path d="M25.4718 11.5679L4.67065 33.3125L34.3224 16.3526L25.4718 11.5679Z" fill="#AC5067"/>
<path d="M25.6517 21.317L34.3225 16.3526L25.4719 11.5679L20.7996 16.4649L25.6517 21.317Z" fill="#F4A676"/>
</g>
<defs>
<filter id="filter0_d_155_626" x="0.670654" y="0.193848" width="140.865" height="42.1807" filterUnits="userSpaceOnUse" color-interpolation-filters="sRGB">
<feFlood flood-opacity="0" result="BackgroundImageFix"/>
<feColorMatrix in="SourceAlpha" type="matrix" values="0 0 0 0 0 0 0 0 0 0 0 0 0 0 0 0 0 0 127 0" result="hardAlpha"/>
<feOffset dy="4"/>
<feGaussianBlur stdDeviation="2"/>
<feComposite in2="hardAlpha" operator="out"/>
<feColorMatrix type="matrix" values="0 0 0 0 0 0 0 0 0 0 0 0 0 0 0 0 0 0 0.25 0"/>
<feBlend mode="normal" in2="BackgroundImageFix" result="effect1_dropShadow_155_626"/>
<feBlend mode="normal" in="SourceGraphic" in2="effect1_dropShadow_155_626" result="shape"/>
</filter>
</defs>
</svg>
