<svg width="21" height="23" viewBox="0 0 21 23" fill="none" xmlns="http://www.w3.org/2000/svg">
<path d="M9.28859 2.6424C9.58794 1.72109 10.8914 1.72109 11.1907 2.6424L12.8263 7.6762C12.9602 8.08822 13.3441 8.36718 13.7773 8.36718H19.0702C20.0389 8.36718 20.4417 9.6068 19.658 10.1762L15.376 13.2873C15.0255 13.5419 14.8788 13.9933 15.0127 14.4053L16.6483 19.4391C16.9476 20.3604 15.8932 21.1265 15.1094 20.5571L10.8274 17.4461C10.4769 17.1914 10.0024 17.1914 9.65186 17.4461L5.36985 20.5571C4.58614 21.1265 3.53166 20.3604 3.83101 19.4391L5.46659 14.4053C5.60047 13.9933 5.45381 13.5419 5.10332 13.2873L0.821316 10.1762C0.0376019 9.6068 0.440377 8.36718 1.4091 8.36718H6.70195C7.13518 8.36718 7.51914 8.08822 7.65301 7.6762L9.28859 2.6424Z" fill="#FFA722"/>
<path d="M0.173828 1.2065C0.173828 0.654212 0.621543 0.206497 1.17383 0.206497H8.99426C9.54655 0.206497 9.99426 0.654212 9.99426 1.2065V21.7935C9.99426 22.3458 9.54655 22.7935 8.99426 22.7935H1.17383C0.621544 22.7935 0.173828 22.3458 0.173828 21.7935V1.2065Z" fill="#FFA722"/>
</svg>
