<svg width="27" height="24" viewBox="0 0 27 24" fill="none" xmlns="http://www.w3.org/2000/svg">
<g filter="url(#filter0_d_214_596)">
<path d="M20.9682 0.869862L20.2322 0.133919C20.0242 -0.0740721 19.6402 -0.042063 19.4002 0.245882L16.84 2.78985C15.688 2.29391 14.4241 2.05391 13.096 2.05391C9.14392 2.06984 5.72014 4.37381 4.07202 7.68602C3.97599 7.89401 3.97599 8.14994 4.07202 8.32593C4.83995 9.89395 5.99202 11.19 7.43203 12.1659L5.33603 14.2939C5.09603 14.5339 5.06402 14.9179 5.22407 15.1259L5.96002 15.8618C6.16801 16.0698 6.55199 16.0378 6.79199 15.7499L20.8399 1.70198C21.1439 1.46211 21.1759 1.07815 20.9679 0.870136L20.9682 0.869862ZM13.944 5.70175C13.672 5.63773 13.3841 5.55778 13.112 5.55778C11.752 5.55778 10.6641 6.6458 10.6641 8.00571C10.6641 8.27772 10.7281 8.56566 10.8081 8.83768L9.73597 9.89372C9.41601 9.33376 9.24003 8.70966 9.24003 8.00574C9.24003 5.87776 10.9521 4.16574 13.08 4.16574C13.7841 4.16574 14.4081 4.34172 14.968 4.66168L13.944 5.70175Z" fill="#807D7E"/>
<path d="M22.1206 7.68596C21.5606 6.56591 20.8246 5.55798 19.9127 4.74194L16.9366 7.68596V8.00591C16.9366 10.1339 15.2246 11.8459 13.0966 11.8459H12.7767L10.8887 13.7339C11.5927 13.8779 12.3287 13.9739 13.0487 13.9739C17.0008 13.9739 20.4246 11.6699 22.0727 8.34177C22.2167 8.11771 22.2167 7.8938 22.1206 7.68578L22.1206 7.68596Z" fill="#807D7E"/>
</g>
<defs>
<filter id="filter0_d_214_596" x="0" y="0" width="26.1875" height="23.9957" filterUnits="userSpaceOnUse" color-interpolation-filters="sRGB">
<feFlood flood-opacity="0" result="BackgroundImageFix"/>
<feColorMatrix in="SourceAlpha" type="matrix" values="0 0 0 0 0 0 0 0 0 0 0 0 0 0 0 0 0 0 127 0" result="hardAlpha"/>
<feOffset dy="4"/>
<feGaussianBlur stdDeviation="2"/>
<feComposite in2="hardAlpha" operator="out"/>
<feColorMatrix type="matrix" values="0 0 0 0 0 0 0 0 0 0 0 0 0 0 0 0 0 0 0.25 0"/>
<feBlend mode="normal" in2="BackgroundImageFix" result="effect1_dropShadow_214_596"/>
<feBlend mode="normal" in="SourceGraphic" in2="effect1_dropShadow_214_596" result="shape"/>
</filter>
</defs>
</svg>
